<svg id="ed3bGDJRnVU1" xmlns="http://www.w3.org/2000/svg" xmlns:xlink="http://www.w3.org/1999/xlink" viewBox="0 0 456.279 456.279" shape-rendering="geometricPrecision" text-rendering="geometricPrecision"><g transform="translate(0-77)"><g><path d="M70.739,106.327l.064-.074c21.436-24.951,61.062-21.385,77.699,6.993v0c11.628,19.834,35.703,28.617,57.372,20.929l6.91-2.452c0,0-5.215,23.126-17.253,26.125" fill="#ce45bd"/><path d="M385.54,103.488l-.064-.074c-21.436-24.951-61.062-21.385-77.699,6.993v0c-11.628,19.834-35.703,28.617-57.372,20.929l-6.91-2.452c0,0,5.215,23.126,17.253,26.125" fill="#25e7f1"/></g><path d="M84.836,368.471L8.97,337.234c-6.796-2.798-10.419-10.244-8.425-17.319L61.567,103.394l150.569,61.995L103.013,362.105c-3.566,6.427-11.381,9.164-18.177,6.366Z" fill="#46cc5d"/><path d="M87.459,351.844c-.82,0-1.652-.202-2.421-.629-2.414-1.34-3.286-4.383-1.946-6.798l6.885-12.41c1.34-2.414,4.382-3.287,6.798-1.947c2.414,1.34,3.286,4.383,1.946,6.798l-6.885,12.41c-.913,1.646-2.618,2.576-4.377,2.576Z" fill="#fff"/><path d="M104.522,321.086c-.82,0-1.652-.202-2.421-.629-2.414-1.34-3.286-4.383-1.946-6.798l51.215-92.326c1.339-2.414,4.381-3.287,6.798-1.947c2.414,1.34,3.286,4.383,1.946,6.798L108.899,318.51c-.913,1.647-2.618,2.576-4.377,2.576Z" fill="#fff"/><path d="M214.63,173.591L54.023,107.462c-3.388-1.395-5.003-5.272-3.609-8.66v0c1.395-3.388,5.272-5.003,8.66-3.609l160.607,66.128c3.388,1.395,5.003,5.272,3.609,8.66v0c-1.395,3.389-5.272,5.005-8.66,3.61Z" fill="#f4e84a"/><path d="M371.444,368.471l75.866-31.237c6.796-2.798,10.419-10.244,8.425-17.319L394.713,103.394L244.143,165.39L353.267,362.105c3.565,6.427,11.38,9.164,18.177,6.366Z" fill="#f48438"/><path d="M433.944,325.026c-2.183,0-4.188-1.44-4.81-3.645l-6.174-21.908c-.749-2.658.799-5.42,3.456-6.169c2.663-.749,5.42.798,6.169,3.456l6.174,21.908c.749,2.658-.799,5.42-3.456,6.169-.454.128-.91.189-1.359.189Z" fill="#fff"/><path d="M421.209,279.84c-2.183,0-4.188-1.44-4.81-3.645L386.483,170.044c-.749-2.658.798-5.42,3.456-6.169c2.657-.748,5.42.798,6.169,3.456l29.916,106.151c.749,2.658-.798,5.42-3.456,6.169-.452.129-.909.189-1.359.189Z" fill="#fff"/><path d="M385.255,152.264c-2.183,0-4.188-1.44-4.81-3.645l-4.36-15.47c-.749-2.658.798-5.42,3.456-6.169c2.656-.747,5.42.798,6.169,3.456l4.36,15.47c.749,2.658-.798,5.42-3.456,6.169-.453.128-.91.189-1.359.189Z" fill="#fff"/><path d="M241.65,173.591l160.607-66.128c3.388-1.395,5.003-5.272,3.609-8.66v0c-1.395-3.388-5.272-5.003-8.66-3.609L236.599,161.322c-3.388,1.395-5.003,5.272-3.609,8.66v0c1.395,3.388,5.272,5.004,8.66,3.609Z" fill="#f4e84a"/></g><g transform="matrix(1.467922 0 0 1.771505-55.990376-294.67463)"><g transform="matrix(.444553 0 0 0.605094 24.297101 144.462266)"><ellipse rx="44.989011" ry="53.181739" transform="translate(86.484317 367.529856)" fill="#25e7f1" stroke-width="0"/><ellipse rx="29.088912" ry="19.646757" transform="matrix(1.353278 0 0 1.733954 103.356031 367.529856)" fill="#fff" stroke-width="0"/></g><g transform="matrix(.444553 0 0 0.605094 106.297101 144.462266)"><ellipse rx="44.989011" ry="53.181739" transform="translate(86.484317 367.529856)" fill="#f48438" stroke-width="0"/><ellipse rx="29.088912" ry="19.646757" transform="matrix(1.353278 0 0 1.733954 103.356031 367.529856)" fill="#fff" stroke-width="0"/></g><g transform="translate(-9 0)"><ellipse rx="22.5" ry="32.179951" transform="translate(109.386235 366.852377)" fill="#25e7f1" stroke-width="0"/><ellipse rx="16" ry="20.613479" transform="translate(109.86382 366.852377)" fill="#fff" stroke-width="0"/></g><g transform="translate(-23.999999 0)"><rect width="10.472621" height="64.359902" rx="0" ry="0" transform="translate(187.886235 334.672426)" fill="#f48438" stroke-width="0"/><rect width="10.472621" height="40" rx="0" ry="0" transform="matrix(.819152 0.573576-.573576 0.819152 211.290873 334.48868)" fill="#f48438" stroke-width="0"/><rect width="10.472621" height="40" rx="0" ry="0" transform="matrix(.819152-.573576 0.573576 0.819152 190.37555 365.495529)" fill="#f48438" stroke-width="0"/></g><g transform="translate(-13 0)"><rect width="40.124834" height="11.750218" rx="0" ry="0" transform="translate(212.136 334.48868)" fill="#46cc5d" stroke-width="0"/><rect width="10.065234" height="52.79343" rx="0" ry="0" transform="translate(227.1395 346.238898)" fill="#46cc5d" stroke-width="0"/></g><g transform="translate(.000001 0)"><rect width="10.862202" height="64.543648" rx="0" ry="0" transform="matrix(.965926-.258819 0.258819 0.965926 258.975498 336.993988)" fill="#46cc5d" stroke-width="0"/><rect width="10.862202" height="64.543648" rx="0" ry="0" transform="matrix(.965926 0.258819-.258819 0.965926 252.680623 334.182643)" fill="#46cc5d" stroke-width="0"/><rect width="16.786956" height="2.819678" rx="0" ry="0" transform="translate(252.680623 333.672426)" fill="#46cc5d" stroke-width="0"/><rect width="23" height="6.501106" rx="0" ry="0" transform="translate(249.574101 366.760504)" fill="#46cc5d" stroke-width="0"/></g><g><rect width="10" height="63.260267" rx="0" ry="0" transform="translate(290.172705 334.672426)" fill="#25e7f1" stroke-width="0"/></g><g transform="translate(0 0.000001)"><rect width="10" height="63.260267" rx="0" ry="0" transform="translate(309.851083 334.672427)" fill="#25e7f1" stroke-width="0"/><rect width="10" height="35" rx="0" ry="0" transform="matrix(0 1-1 0 344.851083 388.261611)" fill="#25e7f1" stroke-width="0"/></g></g></svg>
